# xmcd
#
# Track frame offsets: 
#        150
#        16062
#        28942
#        53135
#        67080
#        82315
#        93932
#        118837
#        142735
#        166405
#        193180
#        207715
#        232265
#        244112
#        271617
#
# Disc length: 3940 seconds
#
# Revision: 2
# Processed by: cddbd v1.5.2PL0 Copyright (c) Steve Scherf et al.
# Submitted via: ExactAudioCopyFreeDBPlugin 1.0
#
DISCID=db0f620f
DTITLE=Free - At Last (2002 RM+Bonus)
DYEAR=1972
DGENRE=Hard Rock
TTITLE0=Catch A Train
TTITLE1=Soldier Boy
TTITLE2=Magic Ship
TTITLE3=Sail On
TTITLE4=Travellin' Man
TTITLE5=Little Bit Of Love
TTITLE6=Guardian Of The Universe
TTITLE7=Child
TTITLE8=Goodbye
TTITLE9=Burnin' (Molton Gold) (Alternative Take)
TTITLE10=Honky Tonk Woman
TTITLE11=Magic Ship (Alternative Mix)
TTITLE12=Little Bit Of Love (Alternative Mix)
TTITLE13=Guardian Of The Universe (Paul Rodgers Solo Version)
TTITLE14=Child (Early Mix)
EXTD=YEAR: 1972
EXTT0=
EXTT1=
EXTT2=
EXTT3=
EXTT4=
EXTT5=
EXTT6=
EXTT7=
EXTT8=
EXTT9=
EXTT10=
EXTT11=
EXTT12=
EXTT13=
EXTT14=
PLAYORDER=
